<?xml version="1.0" standalone="no"?>
<!DOCTYPE svg PUBLIC "-//W3C//DTD SVG 1.1//EN" "http://www.w3.org/Graphics/SVG/1.1/DTD/svg11.dtd" >
<svg>
<metadata>
Created by FontForge 20120731 at Tue Jul 23 17:08:23 2019
 By www-data
Copyright by NGUYEN HONG HAI
</metadata>
<defs>
<font id="HP-Busorama" horiz-adv-x="1" >
  <font-face 
    font-family="HP-Busorama"
    font-weight="400"
    font-stretch="normal"
    units-per-em="2048"
    panose-1="2 11 6 3 5 3 2 2 2 4"
    ascent="1638"
    descent="-410"
    x-height="1539"
    cap-height="1540"
    bbox="-981 -483 2664 2293"
    underline-thickness="0"
    underline-position="0"
    unicode-range="U+0020-2122"
  />
<missing-glyph horiz-adv-x="1229" 
d="M102 -362v1806h1024v-1806h-1024zM217 -248h795v1577h-795v-1577z" />
    <glyph glyph-name=".notdef" unicode="&#x178;" horiz-adv-x="1229" 
d="M102 -362v1806h1024v-1806h-1024zM217 -248h795v1577h-795v-1577z" />
    <glyph glyph-name=".notdef" unicode="&#x2026;" horiz-adv-x="1229" 
d="M102 -362v1806h1024v-1806h-1024zM217 -248h795v1577h-795v-1577z" />
    <glyph glyph-name=".notdef" unicode="&#x192;" horiz-adv-x="1229" 
d="M102 -362v1806h1024v-1806h-1024zM217 -248h795v1577h-795v-1577z" />
    <glyph glyph-name="glyph1" horiz-adv-x="0" 
 />
    <glyph glyph-name="glyph2" horiz-adv-x="840" 
 />
    <glyph glyph-name="space" unicode=" " horiz-adv-x="840" 
 />
    <glyph glyph-name="exclam" unicode="!" horiz-adv-x="389" 
d="M289 78q0 -40 -27.5 -67t-66.5 -27t-67 27t-28 67t27.5 67t67.5 27q39 0 66.5 -27t27.5 -67zM121 262v1278h143v-1278h-143z" />
    <glyph glyph-name="quotedbl" unicode="&#x22;" horiz-adv-x="551" 
d="M451 1434v-553h-86v553h86zM186 1434v-553h-86v553h86z" />
    <glyph glyph-name="numbersign" unicode="#" horiz-adv-x="1575" 
d="M979 866h-270l-99 -282h269zM915 1454l-174 -498h271l176 498h110l-174 -498h322l-31 -90h-323l-101 -282h348l-30 -90h-351l-174 -494h-112l176 494h-270l-179 -494h-110l174 494h-334l31 90h336l100 282h-360l28 90h365l176 498h110z" />
    <glyph glyph-name="dollar" unicode="$" horiz-adv-x="817" 
d="M569 -129h-135v156h-127q95 67 142 149.5t47 181.5q0 96 -35 165.5t-156 166.5q-120 97 -170.5 189t-50.5 208q0 166 92 283.5t258 161.5v156h135v-146q50 -4 97 -20t96 -45v-201q-51 47 -97 73t-96 33v-712q45 -62 67.5 -133.5t22.5 -149.5q0 -80 -21.5 -156.5
t-68.5 -162.5v-197zM434 1374q-88 -39 -136 -112.5t-48 -167.5q0 -85 42.5 -156.5t141.5 -153.5v590z" />
    <glyph glyph-name="percent" unicode="%" horiz-adv-x="1745" 
d="M1032 369q0 -103 71.5 -174.5t174.5 -71.5t174.5 71.5t71.5 174.5t-71.5 174t-174.5 71t-174.5 -71t-71.5 -174zM909 369q0 155 107 262.5t262 107.5q154 0 262.5 -108t108.5 -262q0 -155 -108.5 -262t-262.5 -107q-155 0 -262 107t-107 262zM336 -25l921 1590h138
l-934 -1590h-125zM76 1169q0 155 107.5 262t262.5 107t262 -107t107 -262t-107.5 -262.5t-261.5 -107.5q-155 0 -262.5 107.5t-107.5 262.5zM199 1169q0 -103 72.5 -175t174.5 -72q103 0 174.5 72t71.5 175t-71.5 174.5t-174.5 71.5t-175 -71.5t-72 -174.5z" />
    <glyph glyph-name="ampersand" unicode="&#x26;" horiz-adv-x="1208" 
d="M248 750q-72 80 -104.5 158t-32.5 171q0 206 136.5 345t338.5 139q71 0 131.5 -21t124.5 -67v-172q-66 59 -126.5 84.5t-135.5 25.5q-134 0 -229 -93.5t-95 -227.5q0 -120 70.5 -212t191.5 -128q-113 -37 -181.5 -121.5t-68.5 -186.5q0 -131 90.5 -223t216.5 -92
q132 0 222 89.5t90 221.5q0 49 -18 95.5t-58 97.5q-61 -34 -106.5 -82.5t-81.5 -118.5h-164q99 217 266.5 327.5t396.5 110.5q26 0 38.5 -0.5t23.5 -1.5l-1 -141q-27 3 -47.5 4.5t-35.5 1.5q-35 0 -70.5 -8t-73.5 -25q38 -61 55 -124.5t17 -145.5q0 -195 -131 -324
t-328 -129q-187 0 -319.5 135.5t-132.5 327.5q0 96 30.5 167.5t100.5 142.5z" />
    <glyph glyph-name="quotesingle" unicode="'" horiz-adv-x="285" 
d="M186 1434v-553h-86v553h86z" />
    <glyph glyph-name="parenleft" unicode="(" horiz-adv-x="711" 
d="M672 -131q-304 156 -453 383t-149 534q0 309 147 535t455 387v-170q-220 -116 -338.5 -307.5t-118.5 -431.5q0 -257 108 -437t349 -323v-170z" />
    <glyph glyph-name="parenright" unicode=")" horiz-adv-x="711" 
d="M41 -131v170q240 142 347.5 322t107.5 438q0 240 -118 431.5t-337 307.5v170q306 -161 453 -386.5t147 -535.5q0 -308 -148.5 -535t-451.5 -382z" />
    <glyph glyph-name="asterisk" unicode="*" horiz-adv-x="901" 
d="M449 1128l-138 -198l-110 74l155 192l-225 61l41 127l217 -75v231h121v-231l215 73l45 -122l-227 -64l155 -192l-108 -78z" />
    <glyph glyph-name="plus" unicode="+" horiz-adv-x="1706" 
d="M893 1221v-570h559v-82h-559v-569h-80v569h-559v82h559v570h80z" />
    <glyph glyph-name="comma" unicode="," horiz-adv-x="360" 
d="M168 0q-42 12 -62 35.5t-20 58.5q0 41 27.5 68.5t66.5 27.5t66.5 -27t27.5 -65q0 -14 -3 -26t-9 -23l-108 -190h-78z" />
    <glyph glyph-name="hyphen" unicode="-" horiz-adv-x="573" 
d="M57 709v122h439v-122h-439z" />
    <glyph glyph-name="period" unicode="." horiz-adv-x="360" 
d="M86 94q0 41 27.5 68.5t66.5 27.5q40 0 67 -27.5t27 -68.5q0 -39 -27.5 -66.5t-66.5 -27.5q-40 0 -67 27t-27 67z" />
    <glyph glyph-name="slash" unicode="/" horiz-adv-x="573" 
d="M53 -190h-106l508 1755h120z" />
    <glyph glyph-name="zero" unicode="0" horiz-adv-x="1677" 
d="M203 772q0 -279 186 -471t453 -192q268 0 452.5 191.5t184.5 471.5q0 279 -186.5 471.5t-452.5 192.5q-271 0 -454 -191.5t-183 -472.5zM57 770q0 143 44 272t130 236q112 139 267.5 213t337.5 74q138 0 266 -45.5t233 -133.5q139 -113 212 -271.5t73 -344.5
q0 -144 -44.5 -273.5t-129.5 -234.5q-114 -140 -268 -213.5t-334 -73.5q-160 0 -304.5 60t-254.5 172q-112 112 -170 255t-58 308z" />
    <glyph glyph-name="one" unicode="1" horiz-adv-x="692" 
d="M395 0v1251l-299 -295l-94 91l537 532v-1579h-144z" />
    <glyph glyph-name="two" unicode="2" horiz-adv-x="1186" 
d="M1118 0h-932l650 645q83 82 123 172.5t40 196.5q0 175 -119.5 294t-293.5 119q-175 0 -290.5 -118t-115.5 -297q0 -140 63 -243.5t189 -172.5l-110 -109q-142 102 -213.5 228.5t-71.5 273.5q0 252 155 413t398 161q234 0 395.5 -168t161.5 -410q0 -115 -46.5 -221.5
t-133.5 -190.5l-449 -430h600v-143z" />
    <glyph glyph-name="three" unicode="3" horiz-adv-x="1067" 
d="M41 475h156q10 -157 99 -248.5t230 -91.5q145 0 245.5 99t100.5 241q0 132 -79.5 222.5t-231.5 131.5q113 36 180.5 120t67.5 186q0 126 -85 209t-214 83q-126 0 -204 -84.5t-89 -234.5h-147q8 202 128 329.5t300 127.5q196 0 330.5 -130t134.5 -317q0 -63 -26 -132.5
t-79 -149.5q88 -73 129 -156.5t41 -192.5q0 -221 -141.5 -366.5t-356.5 -145.5q-199 0 -340 142.5t-149 357.5z" />
    <glyph glyph-name="four" unicode="4" horiz-adv-x="1139" 
d="M778 442v732l-549 -732h549zM915 0h-137v307h-805l942 1247v-1112h170v-135h-170v-307z" />
    <glyph glyph-name="five" unicode="5" horiz-adv-x="1153" 
d="M324 1057q48 24 95.5 35.5t100.5 11.5q262 0 426 -160t164 -409q0 -232 -163 -396t-400 -164q-163 0 -287.5 80t-222.5 246l123 70q69 -126 164 -188t217 -62q185 0 305.5 118t120.5 302q0 186 -120.5 308t-295.5 122q-114 0 -206 -50t-191 -167l90 786h712v-127h-585z
" />
    <glyph glyph-name="six" unicode="6" horiz-adv-x="1176" 
d="M205 524q0 -174 114 -294.5t281 -120.5q163 0 276 117t113 286q0 184 -111.5 302t-287.5 118q-169 0 -277 -116.5t-108 -291.5zM426 1022q49 16 93.5 23.5t88.5 7.5q227 0 377 -151t150 -378q0 -239 -152 -394t-385 -155q-234 0 -385.5 155.5t-151.5 399.5q0 86 25.5 165
t87.5 182l404 663h161z" />
    <glyph glyph-name="seven" unicode="7" horiz-adv-x="944" 
d="M293 0h-178l618 1389h-715v151h932z" />
    <glyph glyph-name="eight" unicode="8" horiz-adv-x="1067" 
d="M184 475q0 -160 97.5 -264.5t248.5 -104.5q154 0 253.5 104.5t99.5 262.5q0 157 -101.5 257.5t-259.5 100.5q-139 0 -238.5 -101.5t-99.5 -254.5zM297 1204q0 -106 64.5 -172.5t168.5 -66.5q105 0 170.5 65t65.5 168q0 101 -68 167.5t-170 66.5q-97 0 -164 -66t-67 -162z
M315 899q-76 55 -115.5 128t-39.5 161q0 158 104 265.5t256 107.5q169 0 275 -102t106 -263q0 -92 -36.5 -162t-114.5 -129q132 -58 202 -170.5t70 -267.5q0 -215 -140.5 -353.5t-363.5 -138.5q-204 0 -338.5 139.5t-134.5 350.5q0 147 62 247t208 187z" />
    <glyph glyph-name="nine" unicode="9" horiz-adv-x="1176" 
d="M991 1016q0 174 -114 295t-281 121q-163 0 -275 -116.5t-112 -285.5q0 -184 111 -302t286 -118q169 0 277 115.5t108 290.5zM772 520q-52 -17 -97 -25t-87 -8q-227 0 -377 151t-150 378q0 239 152 394t385 155q234 0 385.5 -155t151.5 -398q0 -87 -25.5 -167t-87.5 -181
l-401 -664h-164z" />
    <glyph glyph-name="colon" unicode=":" horiz-adv-x="360" 
d="M86 92q0 40 28 69t66 29t66 -29t28 -69q0 -39 -27 -65.5t-67 -26.5t-67 26.5t-27 65.5zM86 371q0 39 28 67.5t66 28.5t66 -28.5t28 -67.5q0 -40 -27.5 -68.5t-66.5 -28.5t-66.5 28t-27.5 69z" />
    <glyph glyph-name="semicolon" unicode=";" horiz-adv-x="360" 
d="M168 0q-42 12 -62 35.5t-20 58.5q0 41 27.5 68.5t66.5 27.5t66.5 -27t27.5 -65q0 -14 -3 -26t-9 -23l-108 -190h-78zM86 371q0 39 28 67.5t66 28.5t66 -28.5t28 -67.5q0 -40 -27.5 -68.5t-66.5 -28.5t-66.5 28t-27.5 69z" />
    <glyph glyph-name="less" unicode="&#x3c;" horiz-adv-x="1706" 
d="M1442 1034l-1045 -424l1045 -424v-88l-1178 482v61l1178 483v-90z" />
    <glyph glyph-name="equal" unicode="=" horiz-adv-x="1706" 
d="M1452 469v-82h-1198v82h1198zM1452 831v-79h-1198v79h1198z" />
    <glyph glyph-name="greater" unicode="&#x3e;" horiz-adv-x="1706" 
d="M1442 641v-61l-1178 -482v88l1045 424l-1045 424v90z" />
    <glyph glyph-name="question" unicode="?" horiz-adv-x="915" 
d="M316 256q-2 7 -2.5 15t-0.5 24q0 100 43.5 186t130.5 158q14 11 45 32q78 53 113 97q43 54 67.5 124t24.5 140q0 160 -111 273.5t-270 113.5q-82 0 -153 -29t-142 -92v175q81 47 148 67.5t137 20.5q229 0 381 -151t152 -374q0 -82 -19 -153t-57 -133q-40 -67 -144 -151
q-27 -22 -41 -34q-85 -74 -122 -143.5t-37 -153.5v-12h-143zM291 72q0 40 27 67t67 27t68 -27.5t28 -66.5t-28.5 -67t-67.5 -28q-40 0 -67 27.5t-27 67.5z" />
    <glyph glyph-name="at" unicode="@" horiz-adv-x="2048" 
d="M1303 827l61 129h80l-137 -553q-10 -36 -15.5 -64.5t-5.5 -43.5q0 -44 30.5 -68t86.5 -24q48 0 100 19.5t103 56.5q101 74 162 207t61 282q0 273 -199.5 439.5t-525.5 166.5q-168 0 -310.5 -48t-258.5 -144q-154 -128 -232 -297t-78 -375q0 -327 221.5 -522t591.5 -195
q161 0 324 50.5t299 142.5l29 -45q-146 -110 -308.5 -165t-339.5 -55q-187 0 -343 46.5t-277 138.5q-152 115 -226.5 267.5t-74.5 348.5q0 162 50.5 307t147.5 265q144 175 345.5 265.5t449.5 90.5q160 0 304.5 -44t248.5 -124q128 -98 194 -226.5t66 -277.5
q0 -169 -63 -308t-181 -232q-67 -54 -145.5 -82.5t-159.5 -28.5q-95 0 -143.5 36.5t-48.5 108.5q0 12 3 34q1 3 1 5q-49 -88 -125 -136t-166 -48q-154 0 -233.5 83t-79.5 243q0 228 134.5 386t326.5 158q95 0 160 -43t96 -127zM1219 467l63 254q-22 99 -81.5 151t-151.5 52
q-152 0 -255.5 -138t-103.5 -340q0 -115 57.5 -180t159.5 -65q111 0 196 72.5t116 193.5z" />
    <glyph glyph-name="B" unicode="B" horiz-adv-x="848" 
d="M252 137q176 6 275.5 97.5t99.5 246.5q0 123 -64 208t-188 126q96 37 145 111t49 182q0 134 -82 210.5t-235 84.5v-1266zM115 0v1540h8q281 0 432.5 -113t151.5 -323q0 -85 -26 -149.5t-83 -125.5q87 -50 129.5 -133.5t42.5 -203.5q0 -238 -162.5 -365t-466.5 -127h-26z
" />
    <glyph glyph-name="C" unicode="C" horiz-adv-x="1319" 
d="M1241 246v-158q-87 -57 -189.5 -85t-222.5 -28q-155 0 -296 59t-250 171q-111 112 -168.5 256t-57.5 309q0 339 225 567t564 228q105 0 200 -26t195 -83v-162q-99 77 -194.5 110.5t-217.5 33.5q-265 0 -447.5 -193t-182.5 -475t182.5 -475t447.5 -193q122 0 223.5 35.5
t188.5 108.5z" />
    <glyph glyph-name="D" unicode="D" horiz-adv-x="1034" 
d="M115 1540h20q386 0 614 -210.5t228 -559.5q0 -345 -227.5 -557.5t-602.5 -212.5h-32v1540zM252 1398v-1257q267 11 426.5 183t159.5 446t-162.5 449t-423.5 179z" />
    <glyph glyph-name="F" unicode="F" horiz-adv-x="967" 
d="M109 0v795q0 296 189.5 509t498.5 261v-131q-246 -43 -398.5 -221t-152.5 -420v-19h694v-131h-694v-643h-137z" />
    <glyph glyph-name="G" unicode="G" horiz-adv-x="1319" 
d="M1171 778v-729q-84 -37 -165.5 -55.5t-165.5 -18.5q-333 0 -558 229t-225 566q0 339 225 567t564 228q105 0 200 -26t195 -83v-162q-99 77 -194.5 110.5t-217.5 33.5q-265 0 -447.5 -193t-182.5 -475q0 -287 186 -478.5t469 -191.5q33 0 75.5 7.5t104.5 23.5v647h137z
" />
    <glyph glyph-name="H" unicode="H" horiz-adv-x="1171" 
d="M920 848v692h137v-1540h-137v717h-668v-717h-137v1540h137v-692h668z" />
    <glyph glyph-name="I" unicode="I" horiz-adv-x="389" 
d="M123 0v1540h143v-1540h-143z" />
    <glyph glyph-name="J" unicode="J" horiz-adv-x="668" 
d="M16 -25v140q194 39 298 206t104 439v780h141v-778q0 -333 -137.5 -532t-405.5 -255z" />
    <glyph glyph-name="K" unicode="K" horiz-adv-x="907" 
d="M295 692q206 137 315.5 351.5t118.5 496.5h137q0 -270 -107 -504.5t-310 -408.5q13 -187 134 -321t308 -169v-137q-259 28 -424.5 219.5t-171.5 472.5zM115 0v1540h137v-1540h-137z" />
    <glyph glyph-name="L" unicode="L" horiz-adv-x="702" 
d="M123 0v1540h143v-1407h426v-133h-569z" />
    <glyph glyph-name="M" unicode="M" horiz-adv-x="1432" 
d="M127 0v1540q232 -27 387.5 -147.5t212.5 -315.5q73 206 216 321t362 142v-1540h-140v1358q-180 -64 -276 -230.5t-96 -416.5v-52h-123q0 10 1 28.5t1 27.5q0 259 -105.5 426t-300.5 217v-1358h-139z" />
    <glyph glyph-name="N" unicode="N" horiz-adv-x="1100" 
d="M127 0v1565q274 -132 460 -340.5t265 -470.5l-18 786h139v-1540h-139q1 19 1.5 41t0.5 65q0 399 -143 703t-427 508v-1317h-139z" />
    <glyph glyph-name="P" unicode="P" horiz-adv-x="844" 
d="M256 1384v-796q184 7 295 116t111 281q0 169 -113.5 281t-292.5 118zM123 0v1540h22q303 0 479.5 -151.5t176.5 -409.5q0 -225 -148 -372.5t-397 -168.5v-438h-133z" />
    <glyph glyph-name="Q" unicode="Q" horiz-adv-x="1677" 
d="M1485 -287h-146q-14 112 -48 197t-91 153q-80 -45 -163 -66.5t-179 -21.5q-342 0 -571.5 228.5t-229.5 566.5q0 144 44.5 273.5t129.5 234.5q114 139 268.5 213t336.5 74q158 0 302.5 -60t256.5 -172q110 -110 167.5 -254t57.5 -309q0 -192 -72.5 -350.5t-218.5 -284.5
q67 -89 105 -192t51 -230zM782 446q137 -7 247 -56t212 -148q122 114 181 243.5t59 284.5q0 282 -187.5 475t-457.5 193q-271 0 -454 -192.5t-183 -475.5q0 -285 189 -476.5t472 -191.5q73 0 133.5 15t120.5 47q-58 58 -140 95t-192 54v133z" />
    <glyph glyph-name="R" unicode="R" horiz-adv-x="854" 
d="M270 0h-143v1540h14q269 0 444 -158t175 -397q0 -152 -70.5 -273t-230.5 -243q36 -106 116.5 -195t192.5 -145v-158q-111 46 -191.5 104t-140.5 134q-64 83 -108.5 191.5t-44.5 152.5q0 11 45.5 30t83.5 48q99 73 149.5 162t50.5 190q0 148 -96 259.5t-246 133.5v-1376z
" />
    <glyph glyph-name="S" unicode="S" horiz-adv-x="811" 
d="M252 0q103 70 157 168.5t54 216.5q0 79 -35 149.5t-117 151.5q-6 6 -18 19q-215 214 -215 393q0 194 132 332.5t325 138.5q64 0 127 -16t131 -50v-147q-55 42 -116.5 64t-125.5 22q-138 0 -229 -94.5t-91 -237.5q0 -81 39.5 -154t135.5 -163q106 -99 154 -195.5
t48 -210.5q0 -104 -36 -202.5t-107 -184.5h-213z" />
    <glyph glyph-name="T" unicode="T" horiz-adv-x="879" 
d="M18 1425q84 65 196.5 102.5t225.5 37.5t224.5 -37.5t195.5 -102.5l-59 -116q-64 47 -136 76.5t-157 41.5v-1427h-137v1427q-84 -12 -155.5 -41.5t-135.5 -76.5z" />
    <glyph glyph-name="V" unicode="V" horiz-adv-x="989" 
d="M874 0q-416 201 -629.5 591.5t-213.5 948.5h137v-10q0 -446 139 -764.5t430 -540.5v1315h137v-1540z" />
    <glyph glyph-name="W" unicode="W" horiz-adv-x="1511" 
d="M446 0q-188 289 -287.5 655.5t-99.5 771.5q0 47 0.5 70t2.5 43h142q-2 -61 -2.5 -90.5t-0.5 -54.5q0 -283 58.5 -559.5t176.5 -552.5l324 813l282 -813q139 312 206 604t67 579q0 13 -1 37.5t-1 36.5h139v-45q0 -416 -108.5 -797t-317.5 -698l-274 764z" />
    <glyph glyph-name="X" unicode="X" horiz-adv-x="1171" 
d="M162 0h-142q0 268 106 483.5t347 431.5q-124 117 -195 267t-71 291q0 7 2 37q1 18 2 30h131v-8q0 -167 62 -301t188 -240q127 100 193.5 238t66.5 303v8h127q0 -8 1 -24t1 -23q0 -161 -67.5 -307t-202.5 -275q215 -163 328 -394t118 -517h-133q-3 246 -117 463.5
t-315 359.5q-209 -158 -319.5 -363.5t-110.5 -434.5v-25z" />
    <glyph glyph-name="Y" unicode="Y" horiz-adv-x="1133" 
d="M631 0h-144v541q-228 169 -345.5 406t-147.5 593h143q3 -280 111.5 -505t314.5 -380q206 156 318 380.5t112 484.5v20h146q-11 -319 -142 -576.5t-366 -422.5v-541z" />
    <glyph glyph-name="Z" unicode="Z" horiz-adv-x="948" 
d="M59 96l658 1278q-56 25 -116.5 37t-129.5 12q-70 0 -155 -19t-183 -56l-35 125q101 42 196.5 62.5t184.5 20.5q99 0 201.5 -27t212.5 -83l-639 -1282q59 -29 113 -42t110 -13q93 0 189 28t208 88l44 -121q-110 -63 -219.5 -95t-217.5 -32q-133 0 -240.5 30.5t-181.5 88.5
z" />
    <glyph glyph-name="bracketleft" unicode="[" horiz-adv-x="664" 
d="M111 -119v1825h505v-137h-368v-1551h368v-137h-505z" />
    <glyph glyph-name="backslash" unicode="\" horiz-adv-x="573" 
d="M627 -190h-107l-520 1755h119z" />
    <glyph glyph-name="bracketright" unicode="]" horiz-adv-x="664" 
d="M553 -119h-506v137h369v1551h-369v137h506v-1825z" />
    <glyph glyph-name="asciicircum" unicode="^" horiz-adv-x="2048" 
d="M1081 1458l541 -557h-125l-473 469l-475 -469h-125l539 557h118z" />
    <glyph glyph-name="underscore" unicode="_" horiz-adv-x="1024" 
d="M1024 -403v-80h-1024v80h1024z" />
    <glyph glyph-name="grave" unicode="`" horiz-adv-x="1024" 
d="M651 1675h-114l-287 273h205z" />
    <glyph glyph-name="b" unicode="b" horiz-adv-x="848" 
d="M252 137q176 6 275.5 97.5t99.5 246.5q0 123 -64 208t-188 126q96 37 145 111t49 182q0 134 -82 210.5t-235 84.5v-1266zM115 0v1540h8q281 0 432.5 -113t151.5 -323q0 -85 -26 -149.5t-83 -125.5q87 -50 129.5 -133.5t42.5 -203.5q0 -238 -162.5 -365t-466.5 -127h-26z
" />
    <glyph glyph-name="c" unicode="c" horiz-adv-x="1319" 
d="M1241 246v-158q-87 -57 -189.5 -85t-222.5 -28q-155 0 -296 59t-250 171q-111 112 -168.5 256t-57.5 309q0 339 225 567t564 228q105 0 200 -26t195 -83v-162q-99 77 -194.5 110.5t-217.5 33.5q-265 0 -447.5 -193t-182.5 -475t182.5 -475t447.5 -193q122 0 223.5 35.5
t188.5 108.5z" />
    <glyph glyph-name="d" unicode="d" horiz-adv-x="1034" 
d="M115 1540h20q386 0 614 -210.5t228 -559.5q0 -345 -227.5 -557.5t-602.5 -212.5h-32v1540zM252 1398v-1257q267 11 426.5 183t159.5 446t-162.5 449t-423.5 179z" />
    <glyph glyph-name="f" unicode="f" horiz-adv-x="967" 
d="M109 0v795q0 296 189.5 509t498.5 261v-131q-246 -43 -398.5 -221t-152.5 -420v-19h694v-131h-694v-643h-137z" />
    <glyph glyph-name="g" unicode="g" horiz-adv-x="1319" 
d="M1171 778v-729q-84 -37 -165.5 -55.5t-165.5 -18.5q-333 0 -558 229t-225 566q0 339 225 567t564 228q105 0 200 -26t195 -83v-162q-99 77 -194.5 110.5t-217.5 33.5q-265 0 -447.5 -193t-182.5 -475q0 -287 186 -478.5t469 -191.5q33 0 75.5 7.5t104.5 23.5v647h137z
" />
    <glyph glyph-name="h" unicode="h" horiz-adv-x="1171" 
d="M920 848v692h137v-1540h-137v717h-668v-717h-137v1540h137v-692h668z" />
    <glyph glyph-name="i" unicode="i" horiz-adv-x="389" 
d="M123 0v1540h143v-1540h-143z" />
    <glyph glyph-name="j" unicode="j" horiz-adv-x="668" 
d="M16 -25v140q194 39 298 206t104 439v780h141v-778q0 -333 -137.5 -532t-405.5 -255z" />
    <glyph glyph-name="k" unicode="k" horiz-adv-x="907" 
d="M295 692q206 137 315.5 351.5t118.5 496.5h137q0 -270 -107 -504.5t-310 -408.5q13 -187 134 -321t308 -169v-137q-259 28 -424.5 219.5t-171.5 472.5zM115 0v1540h137v-1540h-137z" />
    <glyph glyph-name="l" unicode="l" horiz-adv-x="702" 
d="M123 0v1540h143v-1407h426v-133h-569z" />
    <glyph glyph-name="m" unicode="m" horiz-adv-x="1432" 
d="M127 0v1540q232 -27 387.5 -147.5t212.5 -315.5q73 206 216 321t362 142v-1540h-140v1358q-180 -64 -276 -230.5t-96 -416.5v-52h-123q0 10 1 28.5t1 27.5q0 259 -105.5 426t-300.5 217v-1358h-139z" />
    <glyph glyph-name="n" unicode="n" horiz-adv-x="1100" 
d="M127 0v1565q274 -132 460 -340.5t265 -470.5l-18 786h139v-1540h-139q1 19 1.5 41t0.5 65q0 399 -143 703t-427 508v-1317h-139z" />
    <glyph glyph-name="p" unicode="p" horiz-adv-x="844" 
d="M256 1384v-796q184 7 295 116t111 281q0 169 -113.5 281t-292.5 118zM123 0v1540h22q303 0 479.5 -151.5t176.5 -409.5q0 -225 -148 -372.5t-397 -168.5v-438h-133z" />
    <glyph glyph-name="q" unicode="q" horiz-adv-x="1677" 
d="M1485 -287h-146q-14 112 -48 197t-91 153q-80 -45 -163 -66.5t-179 -21.5q-342 0 -571.5 228.5t-229.5 566.5q0 144 44.5 273.5t129.5 234.5q114 139 268.5 213t336.5 74q158 0 302.5 -60t256.5 -172q110 -110 167.5 -254t57.5 -309q0 -192 -72.5 -350.5t-218.5 -284.5
q67 -89 105 -192t51 -230zM782 446q137 -7 247 -56t212 -148q122 114 181 243.5t59 284.5q0 282 -187.5 475t-457.5 193q-271 0 -454 -192.5t-183 -475.5q0 -285 189 -476.5t472 -191.5q73 0 133.5 15t120.5 47q-58 58 -140 95t-192 54v133z" />
    <glyph glyph-name="r" unicode="r" horiz-adv-x="854" 
d="M270 0h-143v1540h14q269 0 444 -158t175 -397q0 -152 -70.5 -273t-230.5 -243q36 -106 116.5 -195t192.5 -145v-158q-111 46 -191.5 104t-140.5 134q-64 83 -108.5 191.5t-44.5 152.5q0 11 45.5 30t83.5 48q99 73 149.5 162t50.5 190q0 148 -96 259.5t-246 133.5v-1376z
" />
    <glyph glyph-name="s" unicode="s" horiz-adv-x="811" 
d="M252 0q103 70 157 168.5t54 216.5q0 79 -35 149.5t-117 151.5q-6 6 -18 19q-215 214 -215 393q0 194 132 332.5t325 138.5q64 0 127 -16t131 -50v-147q-55 42 -116.5 64t-125.5 22q-138 0 -229 -94.5t-91 -237.5q0 -81 39.5 -154t135.5 -163q106 -99 154 -195.5
t48 -210.5q0 -104 -36 -202.5t-107 -184.5h-213z" />
    <glyph glyph-name="t" unicode="t" horiz-adv-x="879" 
d="M18 1425q84 65 196.5 102.5t225.5 37.5t224.5 -37.5t195.5 -102.5l-59 -116q-64 47 -136 76.5t-157 41.5v-1427h-137v1427q-84 -12 -155.5 -41.5t-135.5 -76.5z" />
    <glyph glyph-name="v" unicode="v" horiz-adv-x="989" 
d="M874 0q-416 201 -629.5 591.5t-213.5 948.5h137v-10q0 -446 139 -764.5t430 -540.5v1315h137v-1540z" />
    <glyph glyph-name="w" unicode="w" horiz-adv-x="1511" 
d="M446 0q-188 289 -287.5 655.5t-99.5 771.5q0 47 0.5 70t2.5 43h142q-2 -61 -2.5 -90.5t-0.5 -54.5q0 -283 58.5 -559.5t176.5 -552.5l324 813l282 -813q139 312 206 604t67 579q0 13 -1 37.5t-1 36.5h139v-45q0 -416 -108.5 -797t-317.5 -698l-274 764z" />
    <glyph glyph-name="x" unicode="x" horiz-adv-x="1171" 
d="M162 0h-142q0 268 106 483.5t347 431.5q-124 117 -195 267t-71 291q0 7 2 37q1 18 2 30h131v-8q0 -167 62 -301t188 -240q127 100 193.5 238t66.5 303v8h127q0 -8 1 -24t1 -23q0 -161 -67.5 -307t-202.5 -275q215 -163 328 -394t118 -517h-133q-3 246 -117 463.5
t-315 359.5q-209 -158 -319.5 -363.5t-110.5 -434.5v-25z" />
    <glyph glyph-name="y" unicode="y" horiz-adv-x="1133" 
d="M631 0h-144v541q-228 169 -345.5 406t-147.5 593h143q3 -280 111.5 -505t314.5 -380q206 156 318 380.5t112 484.5v20h146q-11 -319 -142 -576.5t-366 -422.5v-541z" />
    <glyph glyph-name="z" unicode="z" horiz-adv-x="948" 
d="M59 96l658 1278q-56 25 -116.5 37t-129.5 12q-70 0 -155 -19t-183 -56l-35 125q101 42 196.5 62.5t184.5 20.5q99 0 201.5 -27t212.5 -83l-639 -1282q59 -29 113 -42t110 -13q93 0 189 28t208 88l44 -121q-110 -63 -219.5 -95t-217.5 -32q-133 0 -240.5 30.5t-181.5 88.5
z" />
    <glyph glyph-name="braceleft" unicode="{" horiz-adv-x="1024" 
d="M848 1389h-37q-135 0 -182 -51.5t-47 -213.5v-241q0 -175 -43 -248t-152 -105q109 -32 152 -104t43 -248v-241q0 -162 46.5 -212.5t180.5 -50.5h39v-88h-43q-189 0 -257.5 74.5t-68.5 300.5v240q0 158 -58 222t-200 64q-7 0 -21.5 -1t-23.5 -1v90q10 -1 20.5 -1.5
t28.5 -0.5q139 0 196.5 64.5t57.5 222.5v240q0 227 68.5 302t257.5 75h43v-88z" />
    <glyph glyph-name="bar" unicode="|" horiz-adv-x="1024" 
d="M557 1565v-2048h-90v2048h90z" />
    <glyph glyph-name="braceright" unicode="}" horiz-adv-x="1024" 
d="M545 1100v-240q0 -158 58 -222.5t200 -64.5q7 0 21.5 1t23.5 1v-90q-9 0 -23.5 1t-21.5 1q-142 0 -200 -64t-58 -222v-240q0 -226 -68.5 -300.5t-257.5 -74.5h-43v88h39q134 0 180.5 50.5t46.5 212.5v241q0 174 43.5 247t153.5 105q-110 32 -153.5 105t-43.5 248v241
q0 162 -47 213.5t-182 51.5h-37v88h43q189 0 257.5 -75t68.5 -302z" />
    <glyph glyph-name="bullet" unicode="&#x2022;" horiz-adv-x="1208" 
d="M307 762q0 123 87 209t210 86q122 0 208.5 -86.5t86.5 -208.5t-87.5 -209.5t-209.5 -87.5q-123 0 -209 87t-86 210z" />
    <glyph glyph-name="registered" unicode="&#xae;" horiz-adv-x="1706" 
d="M852 1077h-168v-313h168q145 0 199.5 36t54.5 126q0 78 -61.5 114.5t-192.5 36.5zM874 1155q180 0 264.5 -56.5t84.5 -176.5q0 -89 -55.5 -149t-147.5 -71l190 -393h-131l-182 377h-213v-377h-115v846h305zM1511 721q0 133 -49 252.5t-141 212.5q-95 95 -215 144.5
t-254 49.5q-133 0 -251.5 -49t-209.5 -141q-95 -97 -145.5 -218t-50.5 -251t50 -249.5t144 -213.5t213.5 -144.5t249.5 -50.5t251.5 51t217.5 146q93 92 141.5 209.5t48.5 251.5zM852 1452q149 0 282.5 -55t237.5 -160q103 -102 157 -235t54 -281q0 -150 -53.5 -280
t-157.5 -232q-107 -106 -241.5 -162.5t-278.5 -56.5q-145 0 -277 55.5t-237 161.5q-105 104 -160 236t-55 278q0 145 56 279t161 241q101 103 232 157t280 54z" />
    <glyph glyph-name="copyright" unicode="&#xa9;" horiz-adv-x="1706" 
d="M1081 918q-20 81 -79.5 126.5t-147.5 45.5q-126 0 -196 -97.5t-70 -273.5q0 -169 71.5 -267t194.5 -98q91 0 156 52.5t84 140.5h102q-11 -123 -108 -201t-240 -78q-173 0 -275 123.5t-102 333.5q0 205 107 328t282 123q132 0 222.5 -72t103.5 -186h-105zM1511 721
q0 133 -49 252.5t-141 212.5q-95 95 -215 144.5t-254 49.5q-133 0 -251.5 -49t-209.5 -141q-95 -97 -145.5 -218t-50.5 -251t50 -249.5t144 -213.5t213.5 -144.5t249.5 -50.5t251.5 51t217.5 146q93 92 141.5 209.5t48.5 251.5zM852 1452q149 0 282.5 -55t237.5 -160
q103 -102 157 -235t54 -281q0 -150 -53.5 -280t-157.5 -232q-107 -106 -241.5 -162.5t-278.5 -56.5q-145 0 -277 55.5t-237 161.5q-105 104 -160 236t-55 278q0 145 56 279t161 241q101 103 232 157t280 54z" />
    <glyph glyph-name="trademark" unicode="&#x2122;" horiz-adv-x="1706" 
d="M926 1454l174 -440l162 440h102v-530h-59v479l-181 -479h-49l-190 479v-479h-60v530h101zM694 1454v-51h-174v-479h-67v479h-179v51h420z" />
    <glyph glyph-name="acute" unicode="&#xb4;" horiz-adv-x="1024" 
d="M373 1675l196 273h205l-287 -273h-114z" />
    <glyph glyph-name="glyph94" horiz-adv-x="1706" 
d="M1280 1108l-217 -277h389v-79h-440l-219 -283h659v-82h-711l-254 -324l-61 48l215 276h-387v82h436l221 283h-657v79h709l254 326z" />
    <glyph glyph-name="glyph95" horiz-adv-x="1706" 
d="M889 557q54 -103 125 -154t162 -51q107 0 176 78t69 199q0 119 -63.5 196.5t-159.5 77.5q-87 0 -157.5 -77.5t-151.5 -268.5zM819 670q-52 102 -123.5 153t-163.5 51q-108 0 -176.5 -77.5t-68.5 -198.5q0 -118 63.5 -195t159.5 -77q88 0 158 76t151 268zM836 713
q66 139 146 206.5t177 67.5q130 0 219.5 -106t89.5 -265q0 -165 -80 -266.5t-210 -101.5q-94 0 -165.5 60.5t-142.5 201.5q-71 -139 -148.5 -203.5t-172.5 -64.5q-130 0 -220.5 106.5t-90.5 263.5q0 166 80 267.5t210 101.5q98 0 172.5 -64.5t135.5 -203.5z" />
    <glyph glyph-name="plusminus" unicode="&#xb1;" horiz-adv-x="1706" 
d="M1452 141v-82h-1198v82h1198zM893 1161v-354h559v-80h-559v-352h-80v352h-559v80h559v354h80z" />
    <glyph glyph-name="glyph97" horiz-adv-x="1706" 
d="M1442 129v-80h-1178v80h1178zM1442 1083l-1043 -350l1043 -352v-88l-1178 405v70l1178 403v-88z" />
    <glyph glyph-name="glyph98" horiz-adv-x="1706" 
d="M1442 129v-80h-1178v80h1178zM1442 768v-70l-1178 -405v88l1043 352l-1043 350v88z" />
    <glyph glyph-name="glyph99" horiz-adv-x="1024" 
d="M750 578q11 69 16.5 144.5t5.5 160.5q0 179 -38 266.5t-116 87.5q-45 0 -99.5 -73.5t-108.5 -73.5q-29 0 -48.5 18.5t-19.5 46.5q0 59 61 102t148 43q160 0 254 -147t94 -401q0 -335 -131.5 -557t-323.5 -222q-139 0 -224 105t-85 280q0 173 107 296.5t258 123.5
q97 0 158.5 -49t91.5 -151zM713 459q0 125 -47 190.5t-138 65.5q-117 0 -190.5 -125t-73.5 -330q0 -117 47.5 -179.5t137.5 -62.5q114 0 189 125.5t75 315.5z" />
    <glyph glyph-name="glyph100" horiz-adv-x="1290" 
d="M45 1473h1208v-123h-1038l721 -787l-760 -835h1077v-121h-1243v127l752 829l-717 787v123z" />
    <glyph glyph-name="glyph101" horiz-adv-x="1491" 
d="M164 1473h1163v-1866h-135v1743h-893v-1743h-135v1866z" />
    <glyph glyph-name="glyph102" horiz-adv-x="1155" 
d="M1102 958h-182l-119 -565q-14 -62 -21.5 -111t-7.5 -77q0 -59 24.5 -83t84.5 -24q27 0 49.5 2.5t42.5 7.5l-25 -108q-29 -9 -52 -12.5t-44 -3.5q-92 0 -145.5 54t-53.5 148q0 47 11.5 122.5t44.5 228.5l88 421h-381l-203 -958h-121l201 958h-39q-55 0 -85.5 -32
t-41.5 -101h-121q25 135 85 186.5t206 51.5h829z" />
    <glyph glyph-name="glyph103" horiz-adv-x="948" 
d="M401 578q0 498 86.5 733t268.5 235q65 0 106 -35t41 -90q0 -45 -27.5 -71.5t-74.5 -26.5q-77 0 -101.5 64.5t-33.5 64.5q-67 0 -93 -159t-26 -687q0 -509 -85.5 -743t-268.5 -234q-64 0 -106 34.5t-42 84.5q0 48 28.5 77.5t76.5 29.5q33 0 56 -13.5t40 -42.5
q8 -14 12.5 -44.5t24.5 -30.5q66 0 92 165t26 689z" />
    <glyph glyph-name="ordmasculine" unicode="&#xba;" horiz-adv-x="1108" 
d="M131 1079q0 -170 122.5 -285.5t301.5 -115.5q178 0 300 115.5t122 285.5q0 169 -123.5 284.5t-302.5 115.5t-299.5 -115t-120.5 -285zM37 1079q0 84 29.5 161t87.5 142q72 83 174.5 127.5t222.5 44.5q92 0 176.5 -27t153.5 -79q91 -67 139.5 -162t48.5 -207
q0 -87 -29 -165t-86 -140q-74 -83 -176 -127.5t-221 -44.5q-106 0 -201.5 36t-167.5 103q-74 67 -112.5 153t-38.5 185z" />
    <glyph glyph-name="glyph105" horiz-adv-x="1585" 
d="M1452 121v-121h-573v102q218 136 328 307.5t110 376.5q0 269 -146.5 438t-377.5 169t-378 -169t-147 -438q0 -205 110 -376.5t329 -307.5v-102h-572v121h354q-183 132 -271.5 295.5t-88.5 369.5q0 317 188.5 522t475.5 205q286 0 474.5 -205t188.5 -522
q0 -206 -88.5 -369.5t-271.5 -295.5h356z" />
    <glyph glyph-name="glyph106" horiz-adv-x="1264" 
d="M1264 1626v-61h-129l-596 -1606h-31l-330 907l-110 -39l-15 50l230 79l278 -759l531 1429h172z" />
    <glyph glyph-name="glyph107" horiz-adv-x="1706" 
d="M1530 485q-106 -74 -202 -110.5t-185 -36.5q-106 0 -295.5 70.5t-282.5 70.5q-83 0 -171 -35.5t-216 -124.5v93q105 73 201 109t186 36q106 0 295.5 -69.5t282.5 -69.5q83 0 171 35.5t216 124.5v-93zM1530 809q-105 -73 -200.5 -109t-186.5 -36q-106 0 -295.5 69.5
t-282.5 69.5q-83 0 -171 -35.5t-216 -124.5v92q106 75 202 111.5t185 36.5q106 0 295.5 -71t282.5 -71q81 0 168.5 36t218.5 126v-94z" />
    <glyph glyph-name="glyph108" horiz-adv-x="1335" 
d="M1155 121l-487 1233l-490 -1233h977zM754 1473l592 -1473h-1358l594 1473h172z" />
    <glyph glyph-name="guillemotright" unicode="&#xbb;" horiz-adv-x="807" 
d="M344 455l250 313l-250 317h141l252 -317l-252 -313h-141zM49 455l250 313l-250 317h139l252 -317l-252 -313h-139z" />
    <glyph glyph-name="uni00A0" unicode="&#xa0;" horiz-adv-x="1677" 
 />
    <glyph glyph-name="OE" unicode="&#x152;" horiz-adv-x="2726" 
d="M199 770q0 -283 186 -475.5t457 -192.5q270 0 454.5 192.5t184.5 475.5q0 282 -187.5 475t-457.5 193q-271 0 -454 -192t-183 -476zM1624 844h735v-133h-735q27 -271 203 -440t426 -169q121 0 216.5 33.5t194.5 110.5v-160q-102 -57 -197.5 -84t-199.5 -27
q-239 0 -418 112.5t-299 338.5q-118 -223 -295.5 -337t-410.5 -114q-138 0 -265.5 46t-236.5 135q-139 114 -212 271.5t-73 342.5q0 144 44.5 273.5t129.5 234.5q114 139 268.5 213t336.5 74q231 0 415 -116.5t301 -338.5q98 214 286.5 334.5t428.5 120.5q106 0 202 -26.5
t195 -82.5v-162q-99 77 -194.5 110.5t-216.5 33.5q-245 0 -420 -164.5t-209 -429.5z" />
    <glyph glyph-name="oe" unicode="&#x153;" horiz-adv-x="2726" 
d="M199 770q0 -283 186 -475.5t457 -192.5q270 0 454.5 192.5t184.5 475.5q0 282 -187.5 475t-457.5 193q-271 0 -454 -192t-183 -476zM1624 844h735v-133h-735q27 -271 203 -440t426 -169q121 0 216.5 33.5t194.5 110.5v-160q-102 -57 -197.5 -84t-199.5 -27
q-239 0 -418 112.5t-299 338.5q-118 -223 -295.5 -337t-410.5 -114q-138 0 -265.5 46t-236.5 135q-139 114 -212 271.5t-73 342.5q0 144 44.5 273.5t129.5 234.5q114 139 268.5 213t336.5 74q231 0 415 -116.5t301 -338.5q98 214 286.5 334.5t428.5 120.5q106 0 202 -26.5
t195 -82.5v-162q-99 77 -194.5 110.5t-216.5 33.5q-245 0 -420 -164.5t-209 -429.5z" />
    <glyph glyph-name="endash" unicode="&#x2013;" horiz-adv-x="1024" 
d="M0 713v114h1024v-114h-1024z" />
    <glyph glyph-name="emdash" unicode="&#x2014;" horiz-adv-x="2048" 
d="M0 827h2048v-114h-2048v114z" />
    <glyph glyph-name="quotedblleft" unicode="&#x201c;" horiz-adv-x="606" 
d="M432 1423q42 -12 63 -35.5t21 -58.5q0 -40 -28 -68t-68 -28q-39 0 -66.5 27t-27.5 65q0 14 3 26t9 23l108 191h78zM186 1423q42 -12 62 -35.5t20 -58.5q0 -40 -27 -68t-67 -28q-39 0 -66.5 27t-27.5 65q0 14 3 26t9 23l109 191h78z" />
    <glyph glyph-name="quotedblright" unicode="&#x201d;" horiz-adv-x="606" 
d="M420 1374q-42 13 -63 37t-21 59q0 40 28 67.5t68 27.5q39 0 66.5 -27t27.5 -65q0 -14 -3 -25t-9 -23l-108 -192h-78zM172 1374q-41 12 -61.5 36.5t-20.5 59.5q0 41 27 67t69 26q40 0 67.5 -26t27.5 -64q0 -14 -3 -25t-10 -23l-108 -192h-78z" />
    <glyph glyph-name="quoteleft" unicode="&#x2018;" horiz-adv-x="360" 
d="M186 1423q42 -12 62 -35.5t20 -58.5q0 -40 -27 -68t-67 -28q-39 0 -66.5 27t-27.5 65q0 14 3 26t9 23l109 191h78z" />
    <glyph glyph-name="quoteright" unicode="&#x2019;" horiz-adv-x="360" 
d="M186 1374q-40 12 -61 36.5t-21 59.5q0 40 27.5 67.5t67.5 27.5q38 0 66 -27t28 -65q0 -14 -3 -25t-9 -23l-109 -192h-76z" />
    <glyph glyph-name="divide" unicode="&#xf7;" horiz-adv-x="1706" 
d="M854 365q41 0 69.5 -29.5t28.5 -71.5q0 -40 -28.5 -69t-69.5 -29t-69.5 28.5t-28.5 69.5t29 71t69 30zM1452 651v-82h-1198v82h1198zM854 1055q41 0 69.5 -28.5t28.5 -70.5q0 -40 -28.5 -70t-69.5 -30t-69.5 29.5t-28.5 70.5t28.5 70t69.5 29z" />
    <glyph glyph-name="glyph120" horiz-adv-x="1012" 
d="M506 1409l-385 -817l385 -825l385 825zM506 1653l500 -1061l-500 -1069l-500 1069z" />
    <glyph glyph-name="glyph121" horiz-adv-x="336" 
d="M557 1565h125l-897 -1590h-127z" />
    <glyph glyph-name="guilsinglright" unicode="&#x203a;" horiz-adv-x="512" 
d="M49 455l250 313l-250 317h139l252 -317l-252 -313h-139z" />
    <glyph glyph-name="glyph123" horiz-adv-x="1356" 
d="M109 0v795q0 296 189.5 509t498.5 261v-131q-246 -43 -398.5 -221t-152.5 -420v-19h694v-131h-694v-643h-137zM1090 0v1540h143v-1540h-143z" />
    <glyph glyph-name="glyph124" horiz-adv-x="1669" 
d="M109 0v795q0 296 189.5 509t498.5 261v-131q-246 -43 -398.5 -221t-152.5 -420v-19h694v-131h-694v-643h-137zM1090 0v1540h143v-1407h426v-133h-569z" />
    <glyph glyph-name="glyph125" horiz-adv-x="360" 
d="M86 770q0 40 27 67t67 27t67 -27t27 -67q0 -39 -27.5 -66.5t-66.5 -27.5q-40 0 -67 27t-27 67z" />
    <glyph glyph-name="perthousand" unicode="&#x2030;" horiz-adv-x="2630" 
d="M1917 369q0 -103 71.5 -174.5t174.5 -71.5t175 71.5t72 174.5q0 102 -72 173.5t-175 71.5t-174.5 -71t-71.5 -174zM1794 369q0 155 107 262.5t262 107.5q154 0 262 -108t108 -262q0 -155 -108 -262t-262 -107q-155 0 -262 107t-107 262zM909 369q0 155 107 262.5
t262 107.5q154 0 262.5 -108t108.5 -262q0 -155 -108.5 -262t-262.5 -107q-155 0 -262 107t-107 262zM1032 369q0 -103 71.5 -174.5t174.5 -71.5t174.5 71.5t71.5 174.5t-71.5 174t-174.5 71t-174.5 -71t-71.5 -174zM336 -25l921 1590h138l-934 -1590h-125zM76 1169
q0 155 107.5 262t262.5 107t262 -107t107 -262t-107.5 -262.5t-261.5 -107.5q-155 0 -262.5 107.5t-107.5 262.5zM199 1169q0 -103 72.5 -175t174.5 -72q103 0 174.5 72t71.5 175t-71.5 174.5t-174.5 71.5t-175 -71.5t-72 -174.5z" />
    <glyph glyph-name="glyph127" horiz-adv-x="1618" 
d="M836 1216q-1 6 -1.5 14t-0.5 23q0 124 95 229.5t236 131.5q1 -10 1.5 -23t0.5 -39q0 -131 -103.5 -234.5t-203.5 -103.5h-8q-3 0 -7.5 1t-8.5 1zM1505 403q-114 -247 -205 -342.5t-204 -95.5q-50 0 -131.5 33t-122.5 33q-45 0 -131 -33t-127 -33q-64 0 -128.5 44
t-129.5 132q-102 140 -157.5 295.5t-55.5 300.5q0 219 125 356.5t323 137.5q68 0 155 -34t124 -34q34 0 121.5 35t152.5 35q110 0 198 -40t161 -124q-102 -65 -151.5 -145.5t-49.5 -182.5q0 -113 60 -200t173 -138z" />
    <glyph glyph-name="glyph128" horiz-adv-x="389" 
d="M123 0v1540h143v-1540h-143z" />
    <glyph glyph-name="circumflex" unicode="&#x2c6;" horiz-adv-x="1024" 
d="M217 1675l199 273h192l199 -273h-115l-180 166l-180 -166h-115z" />
    <glyph glyph-name="tilde" unicode="&#x2dc;" horiz-adv-x="1024" 
d="M795 1917q-17 -98 -65.5 -148.5t-125.5 -50.5q-15 0 -31.5 2.5t-36.5 8.5l-100 28q-6 2 -14 3t-25 1q-27 0 -49.5 -17t-34.5 -48h-86q25 97 75.5 145.5t125.5 48.5q14 0 26.5 -1.5t22.5 -4.5l123 -33q2 0 6 -1q19 -3 27 -3q31 0 50 18t26 52h86z" />
    <glyph glyph-name="glyph131" horiz-adv-x="1024" 
d="M221 1939h109q10 -64 53 -93t129 -29t129.5 29.5t52.5 92.5h109q-15 -134 -84 -195t-207 -61q-137 0 -207 61.5t-84 194.5z" />
    <glyph glyph-name="glyph132" horiz-adv-x="1024" 
d="M418 1798q0 40 27 67t67 27t68 -27t28 -67q0 -39 -28.5 -67.5t-67.5 -28.5q-40 0 -67 28t-27 68z" />
    <glyph glyph-name="glyph133" horiz-adv-x="1024" 
d="M412 1788q0 -40 30 -70t70 -30q41 0 69.5 29t28.5 71q0 41 -28.5 69.5t-69.5 28.5q-42 0 -71 -28.5t-29 -69.5zM328 1788q0 75 54.5 129.5t129.5 54.5q76 0 130 -54t54 -130q0 -77 -54 -131.5t-130 -54.5q-75 0 -129.5 55t-54.5 131z" />
    <glyph glyph-name="cedilla" unicode="&#xb8;" horiz-adv-x="1024" 
d="M268 -387v92q78 -18 142.5 -27.5t105.5 -9.5q49 0 75.5 19.5t26.5 54.5q0 40 -29.5 60t-88.5 20q-18 0 -31 -0.5t-26 -1.5l-1 180h72v-92h27q102 0 157.5 -41t55.5 -117q0 -88 -59.5 -132t-178.5 -44q-52 0 -116 10t-132 29z" />
    <glyph glyph-name="glyph135" horiz-adv-x="1024" 
d="M571 1675l158 273h180l-247 -273h-91zM313 1675l129 273h172l-221 -273h-80z" />
    <glyph glyph-name="glyph136" horiz-adv-x="1024" 
d="M580 0q-70 -60 -100.5 -108t-30.5 -97q0 -39 19 -54t73 -15h80v-132h-82q-108 0 -161.5 38.5t-53.5 115.5q0 61 42 121.5t134 130.5h80z" />
    <glyph glyph-name="glyph137" horiz-adv-x="1024" 
d="M217 1948h115l180 -168l180 168h115l-199 -273h-192z" />
    <glyph glyph-name="periodcentered" unicode="&#xb7;" horiz-adv-x="360" 
d="M86 770q0 40 27 67t67 27t67 -27t27 -67q0 -39 -27.5 -66.5t-66.5 -27.5q-40 0 -67 27t-27 67z" />
    <glyph glyph-name="periodcentered" unicode="&#x2219;" horiz-adv-x="360" 
d="M86 770q0 40 27 67t67 27t67 -27t27 -67q0 -39 -27.5 -66.5t-66.5 -27.5q-40 0 -67 27t-27 67z" />
    <glyph glyph-name="ntilde" unicode="&#xf1;" horiz-adv-x="1034" 
d="M2 702v136h112v702h20q386 0 614 -211q228 -210 228 -559q0 -346 -228 -557q-227 -213 -602 -213h-32v702h-112zM251 838h304v-136h-304v-561q267 10 426 183q160 173 160 446q0 274 -163 449q-163 174 -423 179v-560z" />
    <glyph glyph-name="Ntilde" unicode="&#xd1;" horiz-adv-x="1034" 
d="M2 702v136h112v702h20q386 0 614 -211q228 -210 228 -559q0 -346 -228 -557q-227 -213 -602 -213h-32v702h-112zM251 838h304v-136h-304v-561q267 10 426 183q160 173 160 446q0 274 -163 449q-163 174 -423 179v-560z" />
    <glyph glyph-name="a" unicode="a" horiz-adv-x="1295" 
d="M166 0h-127q-2 32 -2 43q-1 11 -1 71q0 472 147 817q145 346 464 629q319 -287 464 -628q148 -345 148 -810q0 -31 -1 -44v-17.5v-13.5q0 -26 -3 -47h-125l3 125q-2 162 -18 297h-935q-1 -6 -3 -20q0 -5 -0.5 -10t-0.5 -9q-14 -139 -14 -258q0 -55 4 -125v0zM1093 562
q-30 134 -66 240q-33 86 -77 179q-68 122 -143 224q-76 97 -160 182q-79 -78 -160 -182q-73 -95 -132 -206q-42 -74 -80 -178q-50 -132 -72 -259h890z" />
    <glyph glyph-name="A" unicode="A" horiz-adv-x="1295" 
d="M166 0h-127q-2 32 -2 43q-1 11 -1 71q0 472 147 817q145 346 464 629q319 -287 464 -628q148 -345 148 -810q0 -31 -1 -44v-17.5v-13.5q0 -26 -3 -47h-125l3 125q-2 162 -18 297h-935q-1 -6 -3 -20q0 -5 -0.5 -10t-0.5 -9q-14 -139 -14 -258q0 -55 4 -125v0zM1093 562
q-30 134 -66 240q-33 86 -77 179q-68 122 -143 224q-76 97 -160 182q-79 -78 -160 -182q-73 -95 -132 -206q-42 -74 -80 -178q-50 -132 -72 -259h890z" />
    <glyph glyph-name="oslash" unicode="&#xf8;" 
d="M-425 1675h-114l-287 273h205z" />
    <glyph glyph-name="Oslash" unicode="&#xd8;" 
d="M-425 1675h-114l-287 273h205z" />
    <glyph glyph-name="ugrave" unicode="&#xf9;" 
d="M-729 1675l196 273h205l-287 -273h-114z" />
    <glyph glyph-name="Ugrave" unicode="&#xd9;" 
d="M-729 1675l196 273h205l-287 -273h-114z" />
    <glyph glyph-name="asciitilde" unicode="~" horiz-adv-x="828" 
d="M425 1786q-33 10 -64.5 21t-65.5 11q-37 0 -78 -17q-40 -16 -95 -54v130q47 33 90 49q44 17 83 17q34 0 65.5 -11t64.5 -20q31 -10 63 -21t66 -11q35 0 79 17q41 16 95 54v-130q-52 -36 -91 -49q-44 -17 -83 -17q-35 0 -66 10.5t-63 20.5z" />
    <glyph glyph-name="otilde" unicode="&#xf5;" 
d="M-609 1731q-31 9 -63 20t-66 11q-38 0 -79 -16q-38 -16 -95 -55v130q51 34 91 50q45 16 83 16q35 0 66 -11t63 -20q32 -10 64 -21t65 -11q36 0 79 17q39 15 95 55v-130q-50 -35 -91 -50q-40 -16 -83 -16q-34 0 -65 10.5t-64 20.5z" />
    <glyph glyph-name="Otilde" unicode="&#xd5;" 
d="M-609 1731q-31 9 -63 20t-66 11q-38 0 -79 -16q-38 -16 -95 -55v130q51 34 91 50q45 16 83 16q35 0 66 -11t63 -20q32 -10 64 -21t65 -11q36 0 79 17q39 15 95 55v-130q-50 -35 -91 -50q-40 -16 -83 -16q-34 0 -65 10.5t-64 20.5z" />
    <glyph glyph-name="ucircumflex" unicode="&#xfb;" 
d="M-775 2043v129q70 39 126 39h2q100 0 165 -67q67 -66 67 -165q0 -34 -8 -67q-7 -30 -25 -59q-20 -33 -64 -66q-14 -12 -18 -15q-39 -37 -53 -63q-17 -33 -17 -68v-5h-120v6q1 48 15 91.5t59 88.5q22 21 50 45t46 47q22 28 18 82q-3 42 -38.5 66.5t-75.5 23.5
q-78 -4 -129 -43z" />
    <glyph glyph-name="Ucircumflex" unicode="&#xdb;" 
d="M-775 2043v129q70 39 126 39h2q100 0 165 -67q67 -66 67 -165q0 -34 -8 -67q-7 -30 -25 -59q-20 -33 -64 -66q-14 -12 -18 -15q-39 -37 -53 -63q-17 -33 -17 -68v-5h-120v6q1 48 15 91.5t59 88.5q22 21 50 45t46 47q22 28 18 82q-3 42 -38.5 66.5t-75.5 23.5
q-78 -4 -129 -43z" />
    <glyph glyph-name="idieresis" unicode="&#xef;" 
d="M-735 -287q0 40 27 67q29 27 67 27q39 0 68 -28q28 -28 28 -67q0 -38 -29 -66q-28 -28 -67 -28q-40 0 -67 27t-27 67v1z" />
    <glyph glyph-name="Idieresis" unicode="&#xcf;" 
d="M-735 -287q0 40 27 67q29 27 67 27q39 0 68 -28q28 -28 28 -67q0 -38 -29 -66q-28 -28 -67 -28q-40 0 -67 27t-27 67v1z" />
    <glyph glyph-name="ocircumflex" unicode="&#xf4;" horiz-adv-x="1503" 
d="M1196 1541q-36 24 -48 54q-10 28 2 62q13 39 49 56q35 15 72 4q36 -15 53 -48q16 -35 4 -71q-5 -16 -12 -23q-2 -5 -16 -19l-150 -129q142 -109 230 -281q86 -174 86 -378q0 -329 -210 -560q-209 -230 -504 -231q-299 0 -506 231q-210 231 -210 560q0 328 210 561
q208 233 506 233q180 0 343 -97zM782 1435l-30 1l-30 -1l-29 -2q-28 -5 -85 -17q-35 -12 -81 -30q-40 -22 -75 -43l-24 -17l-23 -19l-23 -19q-22 -21 -62 -66q-29 -39 -53 -76q-16 -26 -45 -84l-12 -30l-11 -31l-8 -31l-9 -32l-6 -33l-7 -33q-6 -57 -7 -104q2 -48 7 -103
q9 -58 22 -98q8 -37 31 -92q25 -53 45 -84q23 -38 53 -76l21 -23l19 -22l22 -21l23 -19l23 -19l24 -17l25 -15l25 -15l25 -13l26 -11l27 -10l28 -9l27 -7l30 -6l28 -4l29 -2l30 -1l30 1q41 1 85 12q34 8 82 26q38 15 77 39q31 17 72 51q34 28 65 62q21 24 57 73q22 34 47 81
q23 53 36 89q10 34 25 97q3 26 6.5 51.5t6.5 50.5v34v35l-4 35l-4 34l-5 33l-6 33l-9 32l-10 31l-11 31l-12 30l-13 29l-15 28l-15 27l-17 26l-17 26l-19 24l-21 23l-21 22l-21 21l-23 19l-22 19l-25 17l-25 15l-24 15l-27 13l-26 11l-27 10l-26 9l-29 7l-28 6l-29 4z" />
    <glyph glyph-name="Ocircumflex" unicode="&#xd4;" horiz-adv-x="1503" 
d="M1196 1541q-36 24 -48 54q-10 28 2 62q13 39 49 56q35 15 72 4q36 -15 53 -48q16 -35 4 -71q-5 -16 -12 -23q-2 -5 -16 -19l-150 -129q142 -109 230 -281q86 -174 86 -378q0 -329 -210 -560q-209 -230 -504 -231q-299 0 -506 231q-210 231 -210 560q0 328 210 561
q208 233 506 233q180 0 343 -97zM782 1435l-30 1l-30 -1l-29 -2q-28 -5 -85 -17q-35 -12 -81 -30q-40 -22 -75 -43l-24 -17l-23 -19l-23 -19q-22 -21 -62 -66q-29 -39 -53 -76q-16 -26 -45 -84l-12 -30l-11 -31l-8 -31l-9 -32l-6 -33l-7 -33q-6 -57 -7 -104q2 -48 7 -103
q9 -58 22 -98q8 -37 31 -92q25 -53 45 -84q23 -38 53 -76l21 -23l19 -22l22 -21l23 -19l23 -19l24 -17l25 -15l25 -15l25 -13l26 -11l27 -10l28 -9l27 -7l30 -6l28 -4l29 -2l30 -1l30 1q41 1 85 12q34 8 82 26q38 15 77 39q31 17 72 51q34 28 65 62q21 24 57 73q22 34 47 81
q23 53 36 89q10 34 25 97q3 26 6.5 51.5t6.5 50.5v34v35l-4 35l-4 34l-5 33l-6 33l-9 32l-10 31l-11 31l-12 30l-13 29l-15 28l-15 27l-17 26l-17 26l-19 24l-21 23l-21 22l-21 21l-23 19l-22 19l-25 17l-25 15l-24 15l-27 13l-26 11l-27 10l-26 9l-29 7l-28 6l-29 4z" />
    <glyph glyph-name="U" unicode="U" horiz-adv-x="1237" 
d="M994 1539h125v-1085q0 -196 -141.5 -336.5t-336.5 -140.5h-46q-196 0 -337 139.5t-141 337.5v1085h125v-1083q0 -42 11 -89q12 -44 32 -80q21 -38 49 -70q28 -29 51 -46q40 -29 90 -49q37 -12 67 -17q76 -10 152 0q29 5 67 17q32 14 47 22q45 25 82 61q37 40 61 82
q19 36 32 80q11 47 11 89v1083z" />
    <glyph glyph-name="u" unicode="u" horiz-adv-x="1237" 
d="M994 1539h125v-1085q0 -196 -141.5 -336.5t-336.5 -140.5h-46q-196 0 -337 139.5t-141 337.5v1085h125v-1083q0 -42 11 -89q12 -44 32 -80q21 -38 49 -70q28 -29 51 -46q40 -29 90 -49q37 -12 67 -17q76 -10 152 0q29 5 67 17q32 14 47 22q45 25 82 61q37 40 61 82
q19 36 32 80q11 47 11 89v1083z" />
    <glyph glyph-name="odieresis" unicode="&#xf6;" horiz-adv-x="1237" 
d="M1119 1429v0v-975q0 -196 -141.5 -336.5t-336.5 -140.5h-46q-196 0 -337 139.5t-141 337.5v1085h125v-1083q0 -42 11 -89q12 -44 32 -80q21 -38 49 -70q28 -29 51 -46q40 -29 90 -49q37 -12 67 -17q76 -10 152 0q29 5 67 17q32 14 47 22q45 25 82 61q37 40 61 82
q19 36 32 80q11 47 11 89v1083h125v-30v0l43 32q-35 23 -47 54q-12 25 0 62q15 38 50 56q37 15 72 3q34 -12 54 -47q16 -36 4 -71q-9 -20 -11 -23q-9 -12 -17 -19z" />
    <glyph glyph-name="Odieresis" unicode="&#xd6;" horiz-adv-x="1237" 
d="M1119 1429v0v-975q0 -196 -141.5 -336.5t-336.5 -140.5h-46q-196 0 -337 139.5t-141 337.5v1085h125v-1083q0 -42 11 -89q12 -44 32 -80q21 -38 49 -70q28 -29 51 -46q40 -29 90 -49q37 -12 67 -17q76 -10 152 0q29 5 67 17q32 14 47 22q45 25 82 61q37 40 61 82
q19 36 32 80q11 47 11 89v1083h125v-30v0l43 32q-35 23 -47 54q-12 25 0 62q15 38 50 56q37 15 72 3q34 -12 54 -47q16 -36 4 -71q-9 -20 -11 -23q-9 -12 -17 -19z" />
    <glyph glyph-name="E" unicode="E" horiz-adv-x="1295" 
d="M1142 1505v-145q-44 25 -95 44q-95 34 -218 34q-245 0 -419 -164q-176 -166 -209 -430h735v-133h-735q27 -272 203 -440q174 -170 425 -169q122 0 217 33q96 34 195 111v-160q-102 -58 -198 -85q-97 -25 -197 -25q-340 0 -564 227q-225 228 -225 567t225 567t564 228
q103 0 200 -26q54 -16 96 -34z" />
    <glyph glyph-name="e" unicode="e" horiz-adv-x="1295" 
d="M1142 1505v-145q-44 25 -95 44q-95 34 -218 34q-245 0 -419 -164q-176 -166 -209 -430h735v-133h-735q27 -272 203 -440q174 -170 425 -169q122 0 217 33q96 34 195 111v-160q-102 -58 -198 -85q-97 -25 -197 -25q-340 0 -564 227q-225 228 -225 567t225 567t564 228
q103 0 200 -26q54 -16 96 -34z" />
    <glyph glyph-name="acircumflex" unicode="&#xe2;" 
d="M-644 1796l-178 -192h-148l264 287h123l264 -287h-148z" />
    <glyph glyph-name="Acircumflex" unicode="&#xc2;" 
d="M-644 1796l-178 -192h-148l264 287h123l264 -287h-148z" />
    <glyph glyph-name="aacute" unicode="&#xe1;" 
d="M-644 1796l-178 -192h-148l264 287h123l264 -287h-148zM-453 1776l196 273h205l-287 -273h-114z" />
    <glyph glyph-name="Aacute" unicode="&#xc1;" 
d="M-644 1796l-178 -192h-148l264 287h123l264 -287h-148zM-453 1776l196 273h205l-287 -273h-114z" />
    <glyph glyph-name="Agrave" unicode="&#xc0;" 
d="M-644 1796l-178 -192h-148l264 287h123l264 -287h-148zM-200 1776h-114l-287 273h205z" />
    <glyph glyph-name="agrave" unicode="&#xe0;" 
d="M-644 1796l-178 -192h-148l264 287h123l264 -287h-148zM-200 1776h-114l-287 273h205z" />
    <glyph glyph-name="aring" unicode="&#xe5;" 
d="M-644 1796l-178 -192h-148l264 287h123l264 -287h-148zM-492 2140v117q62 36 115 36h2q90 0 151 -61q61 -60 61 -150q0 -32 -8 -62t-23 -53q-14 -27 -57 -61q-14 -10 -17 -13q-33 -31 -49 -58q-15 -27 -15 -62v-5h-110v6q1 44 13.5 83.5t54.5 81.5q21 19 46 40.5t41 42.5
q22 26 17 75q-3 38 -35 60.5t-69 21.5q-72 -4 -118 -39z" />
    <glyph glyph-name="Aring" unicode="&#xc5;" 
d="M-644 1796l-178 -192h-148l264 287h123l264 -287h-148zM-492 2140v117q62 36 115 36h2q90 0 151 -61q61 -60 61 -150q0 -32 -8 -62t-23 -53q-14 -27 -57 -61q-14 -10 -17 -13q-33 -31 -49 -58q-15 -27 -15 -62v-5h-110v6q1 44 13.5 83.5t54.5 81.5q21 19 46 40.5t41 42.5
q22 26 17 75q-3 38 -35 60.5t-69 21.5q-72 -4 -118 -39z" />
    <glyph glyph-name="Atilde" unicode="&#xc3;" 
d="M-645 1977q-20 6 -62 20q-34 11 -66 11q-35 0 -79 -16q-38 -17 -95 -55v130q54 34 91 50q48 16 83 16q33 0 66 -11q37 -13 63 -20q42 -14 64 -21q33 -11 65 -11q35 0 79 17q41 16 95 55v-130q-53 -37 -91 -50q-39 -16 -83 -16q-36 0 -65 10q-15 5 -31.5 10t-32.5 11h-1z
M-644 1796l-178 -192h-148l264 287h123l264 -287h-148z" />
    <glyph glyph-name="atilde" unicode="&#xe3;" 
d="M-645 1977q-20 6 -62 20q-34 11 -66 11q-35 0 -79 -16q-38 -17 -95 -55v130q54 34 91 50q48 16 83 16q33 0 66 -11q37 -13 63 -20q42 -14 64 -21q33 -11 65 -11q35 0 79 17q41 16 95 55v-130q-53 -37 -91 -50q-39 -16 -83 -16q-36 0 -65 10q-15 5 -31.5 10t-32.5 11h-1z
M-644 1796l-178 -192h-148l264 287h123l264 -287h-148z" />
    <glyph glyph-name="adieresis" unicode="&#xe4;" 
d="M-644 1796l-178 -192h-148l264 287h123l264 -287h-148zM-739 -287q0 41 26 67q29 27 67 27q40 0 68 -28q29 -27 29 -67q0 -38 -29 -66q-28 -28 -68 -28t-66 27q-27 27 -27 67v1z" />
    <glyph glyph-name="Adieresis" unicode="&#xc4;" 
d="M-644 1796l-178 -192h-148l264 287h123l264 -287h-148zM-739 -287q0 41 26 67q29 27 67 27q40 0 68 -28q29 -27 29 -67q0 -38 -29 -66q-28 -28 -68 -28t-66 27q-27 27 -27 67v1z" />
    <glyph glyph-name="ecircumflex" unicode="&#xea;" 
d="M-457 1808h114q-51 -100 -125 -149q-75 -48 -176 -48t-176 48q-73 47 -126 149h113q26 -36 76 -63q79 -43 181 -18q51 12 94 56z" />
    <glyph glyph-name="Ecircumflex" unicode="&#xca;" 
d="M-457 1808h114q-51 -100 -125 -149q-75 -48 -176 -48t-176 48q-73 47 -126 149h113q26 -36 76 -63q79 -43 181 -18q51 12 94 56z" />
    <glyph glyph-name="eacute" unicode="&#xe9;" 
d="M-457 1808h114q-51 -100 -125 -149q-75 -48 -176 -48t-176 48q-73 47 -126 149h113q26 -36 76 -63q79 -43 181 -18q51 12 94 56zM-717 1773l196 273h205l-287 -273h-114z" />
    <glyph glyph-name="Egrave" unicode="&#xc8;" 
d="M-457 1808h114q-51 -100 -125 -149q-75 -48 -176 -48t-176 48q-73 47 -126 149h113q26 -36 76 -63q79 -43 181 -18q51 12 94 56zM-580 1773h-114l-287 273h205z" />
    <glyph glyph-name="uacute" unicode="&#xfa;" 
d="M-457 1808h114q-51 -100 -125 -149q-75 -48 -176 -48t-176 48q-73 47 -126 149h113q26 -36 76 -63q79 -43 181 -18q51 12 94 56zM-753 2140v117q62 36 115 36h2q90 0 151 -61t61 -150q0 -32 -8 -62t-23 -53q-15 -28 -58 -61q-18 -15 -16 -13q-32 -29 -49 -58
q-15 -27 -15 -62v-5h-110v6q1 44 13.5 83.5t54.5 81.5q20 19 45.5 40.5t41.5 42.5q22 26 17 75q-3 38 -35 60.5t-69 21.5q-72 -4 -118 -39z" />
    <glyph glyph-name="Uacute" unicode="&#xda;" 
d="M-457 1808h114q-51 -100 -125 -149q-75 -48 -176 -48t-176 48q-73 47 -126 149h113q26 -36 76 -63q79 -43 181 -18q51 12 94 56zM-753 2140v117q62 36 115 36h2q90 0 151 -61t61 -150q0 -32 -8 -62t-23 -53q-15 -28 -58 -61q-18 -15 -16 -13q-32 -29 -49 -58
q-15 -27 -15 -62v-5h-110v6q1 44 13.5 83.5t54.5 81.5q20 19 45.5 40.5t41.5 42.5q22 26 17 75q-3 38 -35 60.5t-69 21.5q-72 -4 -118 -39z" />
    <glyph glyph-name="udieresis" unicode="&#xfc;" 
d="M-457 1808h114q-51 -100 -125 -149q-75 -48 -176 -48t-176 48q-73 47 -126 149h113q26 -36 76 -63q79 -43 181 -18q51 12 94 56zM-645 1905q-20 6 -62 20q-34 11 -66 11q-35 0 -79 -16q-38 -17 -95 -55v130q54 34 91 50q48 16 83 16q33 0 66 -11q37 -13 63 -20
q42 -14 64 -21q33 -11 65 -11q35 0 79 17q41 16 95 55v-130q-53 -37 -91 -50q-39 -16 -83 -16q-36 0 -65 10q-15 5 -31.5 10t-32.5 11h-1z" />
    <glyph glyph-name="Udieresis" unicode="&#xdc;" 
d="M-457 1808h114q-51 -100 -125 -149q-75 -48 -176 -48t-176 48q-73 47 -126 149h113q26 -36 76 -63q79 -43 181 -18q51 12 94 56zM-645 1905q-20 6 -62 20q-34 11 -66 11q-35 0 -79 -16q-38 -17 -95 -55v130q54 34 91 50q48 16 83 16q33 0 66 -11q37 -13 63 -20
q42 -14 64 -21q33 -11 65 -11q35 0 79 17q41 16 95 55v-130q-53 -37 -91 -50q-39 -16 -83 -16q-36 0 -65 10q-15 5 -31.5 10t-32.5 11h-1z" />
    <glyph glyph-name="edieresis" unicode="&#xeb;" 
d="M-739 -287q0 41 26 67q29 27 67 27q40 0 68 -28q29 -27 29 -67q0 -38 -29 -66q-28 -28 -68 -28t-66 27q-27 27 -27 67v1zM-457 1808h114q-51 -100 -125 -149q-75 -48 -176 -48t-176 48q-73 47 -126 149h113q26 -36 76 -63q79 -43 181 -18q51 12 94 56z" />
    <glyph glyph-name="Edieresis" unicode="&#xcb;" 
d="M-739 -287q0 41 26 67q29 27 67 27q40 0 68 -28q29 -27 29 -67q0 -38 -29 -66q-28 -28 -68 -28t-66 27q-27 27 -27 67v1zM-457 1808h114q-51 -100 -125 -149q-75 -48 -176 -48t-176 48q-73 47 -126 149h113q26 -36 76 -63q79 -43 181 -18q51 12 94 56z" />
    <glyph glyph-name="iacute" unicode="&#xed;" horiz-adv-x="389" 
d="M123 0v1540h143v-1540h-143zM80 1675l196 273h205l-287 -273h-114z" />
    <glyph glyph-name="igrave" unicode="&#xec;" horiz-adv-x="389" 
d="M123 0v1540h143v-1540h-143zM334 1675h-114l-286 273h204z" />
    <glyph glyph-name="Iacute" unicode="&#xcd;" horiz-adv-x="389" 
d="M123 0v1540h143v-1540h-143zM80 1675l196 273h205l-287 -273h-114z" />
    <glyph glyph-name="Igrave" unicode="&#xcc;" horiz-adv-x="389" 
d="M123 0v1540h143v-1540h-143zM334 1675h-114l-286 273h204z" />
    <glyph glyph-name="ae" unicode="&#xe6;" horiz-adv-x="389" 
d="M123 0v1540h143v-1540h-143zM86 2058v117q61 36 114 36h3q90 0 151 -61t61 -150q0 -32 -8 -62q-9 -30 -23 -53q-16 -28 -58 -61q-6 -4 -10 -8t-6 -5q-33 -29 -49 -58q-15 -27 -15 -62v-5h-110v6q0 44 13 83.5t55 81.5q19 19 44.5 40.5t42.5 42.5q21 26 17 75
q-4 38 -36 60.5t-68 21.5q-74 -4 -118 -39z" />
    <glyph glyph-name="AE" unicode="&#xc6;" horiz-adv-x="389" 
d="M123 0v1540h143v-1540h-143zM86 2058v117q61 36 114 36h3q90 0 151 -61t61 -150q0 -32 -8 -62q-9 -30 -23 -53q-16 -28 -58 -61q-6 -4 -10 -8t-6 -5q-33 -29 -49 -58q-15 -27 -15 -62v-5h-110v6q0 44 13 83.5t55 81.5q19 19 44.5 40.5t42.5 42.5q21 26 17 75
q-4 38 -36 60.5t-68 21.5q-74 -4 -118 -39z" />
    <glyph glyph-name="oacute" unicode="&#xf3;" horiz-adv-x="389" 
d="M123 0v1540h143v-1540h-143zM194 1731q-15 4 -31 9t-32 11q-33 11 -65 11q-37 0 -78 -16q-38 -17 -95 -55v130q54 34 91 50q46 16 82 16q33 0 65 -11q42 -14 64 -20q15 -6 31 -11l32 -10q34 -11 66 -11q34 0 78 17q40 15 96 55v-130q-54 -37 -91 -50q-40 -16 -83 -16
q-37 0 -65 10q-16 5 -32.5 10t-31.5 11h-1z" />
    <glyph glyph-name="Oacute" unicode="&#xd3;" horiz-adv-x="389" 
d="M123 0v1540h143v-1540h-143zM194 1731q-15 4 -31 9t-32 11q-33 11 -65 11q-37 0 -78 -16q-38 -17 -95 -55v130q54 34 91 50q46 16 82 16q33 0 65 -11q42 -14 64 -20q15 -6 31 -11l32 -10q34 -11 66 -11q34 0 78 17q40 15 96 55v-130q-54 -37 -91 -50q-40 -16 -83 -16
q-37 0 -65 10q-16 5 -32.5 10t-31.5 11h-1z" />
    <glyph glyph-name="ograve" unicode="&#xf2;" horiz-adv-x="389" 
d="M123 0v1540h143v-1540h-143zM100 -287q0 41 26 67q28 27 67 27q40 0 68 -28q29 -27 29 -67q0 -38 -29 -66q-28 -28 -68 -28q-41 0 -66 27q-27 27 -27 67v1z" />
    <glyph glyph-name="Ograve" unicode="&#xd2;" horiz-adv-x="389" 
d="M123 0v1540h143v-1540h-143zM100 -287q0 41 26 67q28 27 67 27q40 0 68 -28q29 -27 29 -67q0 -38 -29 -66q-28 -28 -68 -28q-41 0 -66 27q-27 27 -27 67v1z" />
    <glyph glyph-name="icircumflex" unicode="&#xee;" horiz-adv-x="1132" 
d="M631 0h-144v541q-227 166 -346 406q-118 236 -146 593h142q2 -280 111 -505q109 -226 315 -380q205 155 318 380q112 224 112 485v20h146q-11 -317 -142 -577q-131 -258 -366 -422v-541zM463 -287q0 40 27 67q28 27 67 27q40 0 68 -28q28 -26 28 -67q0 -39 -28 -66
q-28 -28 -68 -28t-67 27t-27 67v1z" />
    <glyph glyph-name="Icircumflex" unicode="&#xce;" horiz-adv-x="1132" 
d="M631 0h-144v541q-227 166 -346 406q-118 236 -146 593h142q2 -280 111 -505q109 -226 315 -380q205 155 318 380q112 224 112 485v20h146q-11 -317 -142 -577q-131 -258 -366 -422v-541zM463 -287q0 40 27 67q28 27 67 27q40 0 68 -28q28 -26 28 -67q0 -39 -28 -66
q-28 -28 -68 -28t-67 27t-27 67v1z" />
    <glyph glyph-name="egrave" unicode="&#xe8;" 
d="M-342 1808q-51 -101 -125 -149q-75 -48 -176 -48t-176 48q-73 46 -126 149h113q26 -37 76 -63q79 -44 181 -18q50 11 94 56l25 25h114zM-579 1773h-114l-287 273h205z" />
    <glyph glyph-name="Eacute" unicode="&#xc9;" 
d="M-342 1808h-114l-25 -25q-44 -45 -94 -56q-102 -26 -181 18q-50 26 -76 63h-113q53 -103 126 -149q75 -48 176 -48t176 48q74 48 125 149zM-716 1773l196 273h205l-287 -273h-114z" />
    <glyph glyph-name="O" unicode="O" horiz-adv-x="1384" 
d="M698 1562q279 0 479 -233q200 -234 200 -561q0 -329 -200 -560q-197 -227 -479 -229q-286 0 -480 229q-200 230 -199 560q0 325 198 561q199 233 481 233v0zM738 1425q-61 3 -121 -6q-80 -13 -155 -56q-93 -57 -161 -146.5t-104 -190.5q-19 -54 -32 -123
q-28 -176 14 -334q54 -215 227 -355q50 -40 101 -61q62 -29 136 -36q85 -8 161 9q80 17 152 65q163 111 237 304q21 55 34 120q12 70 14 153q-2 106 -24 199q-17 60 -42 117q-50 105 -133 191q-52 51 -110 88q-92 53 -194 62z" />
    <glyph glyph-name="o" unicode="o" horiz-adv-x="1384" 
d="M698 1562q279 0 479 -233q200 -234 200 -561q0 -329 -200 -560q-197 -227 -479 -229q-286 0 -480 229q-200 230 -199 560q0 325 198 561q199 233 481 233v0zM738 1425q-61 3 -121 -6q-80 -13 -155 -56q-93 -57 -161 -146.5t-104 -190.5q-19 -54 -32 -123
q-28 -176 14 -334q54 -215 227 -355q50 -40 101 -61q62 -29 136 -36q85 -8 161 9q80 17 152 65q163 111 237 304q21 55 34 120q12 70 14 153q-2 106 -24 199q-17 60 -42 117q-50 105 -133 191q-52 51 -110 88q-92 53 -194 62z" />
    <glyph glyph-name="logicalnot" unicode="&#xac;" horiz-adv-x="2154" 
d="M1010 1573v-10l-408 -246v57l301 199h107zM1010 1517v-72l-408 -245v41zM1010 1384v-56l-408 -246v26l10 5zM1010 1251v-41l-382 -235l377 138l5 5v-25l-184 -118l184 67v-777h-362l-10 -5h-36v404h-123v-414l-408 -245v986l342 122l66 46v-30l-245 -154l245 92v-56h11
l-62 -36l102 36h72v25l209 77zM96 0h-25v5zM71 1001v61l148 51l260 179v-46zM71 1118v31l408 276v-62zM602 1440v66l107 67h122zM71 1236v46l408 275v-76zM602 1557v16h36zM71 1353v61l240 159h127zM71 1476v97h168zM1174 1573h46l-46 -26v26zM1296 1573h123l-245 -148v66z
M1490 1573h92h18h18l-444 -266v51zM1684 1573q46 0 108 -10l-618 -373v36zM1843 1547q35 -6 76 -30l-745 -445v31l25 10zM1960 1491q3 -4 7.5 -8t8.5 -7q7 -8 11.5 -15.5t8.5 -10.5l-301 -184q0 6 -11 16q-10 10 -20 10zM2022 1399q1 -4 15 -46l-327 -194v15v7.5v8.5z
M2047 1287q0 -12 2.5 -23.5t2.5 -22.5l-342 -205v7.5v3.5v35l82 31zM2052 1154v-8.5v-11.5v-5l-245 -154l245 92v-61l-51 -31l51 21q0 -151 -30 -220q-33 -72 -113 -102q-89 -41 -219 -41h-108v-408l-378 -225h-30v1031l219 82l189 123v-36l-367 -225l367 133v-31l-168 -102
l168 61v-132h15.5h15.5q53 0 77 31q20 20 20 76l276 102z" />
    </font>
</defs>
</svg>
